<svg width="373.08" height="120.2" version="1.1" viewBox="0 0 373.08 120.2" xmlns="http://www.w3.org/2000/svg"><g transform="matrix(1.3333 0 0 -1.3333 -166.86 293.61)"><g transform="matrix(.62143 0 0 .64212 -29.806 -10.744)"><g transform="translate(333.81 309.12)"><path d="m0 0-29.518 0.087-14.913 25.054z" fill="#33b540" fill-rule="evenodd"/></g><g transform="translate(377.31 284.01)"><path d="m0 0-58.54-0.01 34.704 13.823z" fill="#b3db18" fill-rule="evenodd"/></g><g transform="translate(374.1 309.01)" fill-rule="evenodd"><path d="m0 0-40.321 6e-3 5.598 10.182z" fill="#007a38"/><path d="m0 0 3.161-25.022-43.8 25.155z" fill="#009748"/></g><g transform="translate(339.39 319.17)"><path d="m0 0-5.59-10.137-44.463 25.256z" fill="#005d28" fill-rule="evenodd"/></g><g transform="translate(353.44 297.8)"><path d="m0 0-34.667-13.801 15.008 24.992z" fill="#80cc28" fill-rule="evenodd"/></g><g transform="translate(333.89 309.17)"><path d="m0 0-15.116-25.167-14.48 25.207z" fill="#59c134" fill-rule="evenodd"/></g><g transform="translate(289.34 334.28)"><path d="m0 0 86.337-50.33h1.63l-0.229 1.583z" fill="#ccebb5" fill-rule="evenodd"/></g><g transform="translate(302.13 254.24)"><path d="m0 0 14.719 25.032 28.855 0.057z" fill="#0e88d3" fill-rule="evenodd"/></g><g transform="translate(258 229.2)"><path d="m0 0 29.168 50.017-5.24-36.483z" fill="#66cef5" fill-rule="evenodd"/></g><g transform="translate(282.21 219.28)" fill-rule="evenodd"><path d="m0 0 19.852 35.035 6.695-9.901z" fill="#085689"/><path d="m0 0-24.204 9.971 44.326 25.271z" fill="#1575c5"/></g><g transform="translate(308.73 244.42)"><path d="m0 0-6.662 9.869 43.689 25.058z" fill="#0c3b5f" fill-rule="evenodd"/></g><g transform="translate(281.92 242.78)"><path d="m0 0 5.24 36.44 14.871-24.884z" fill="#41baee" fill-rule="evenodd"/></g><g transform="translate(302.13 254.15)"><path d="m0 0-14.969 25.068 29.687 0.055z" fill="#2e9dde" fill-rule="evenodd"/></g><g transform="translate(345.74 279.36)"><path d="m0 0-86.965-48.712-0.83-1.404 1.479-0.612z" fill="#b3e6fa" fill-rule="evenodd"/></g><g transform="translate(269.57 309.49)"><path d="m0 0 14.827-25.495-14.363-25.157z" fill="#ed1c24" fill-rule="evenodd"/></g><g transform="translate(269.22 359.65)"><path d="m0 0 30.062-50.104-29.866 22.615z" fill="#f89b5c" fill-rule="evenodd"/></g><g transform="translate(249.35 344.34)" fill-rule="evenodd"><path d="m0 0 20.328-34.822-11.884-0.248z" fill="#9c1116"/><path d="m0 0 19.91 15.287 0.467-50.448z" fill="#cf181f"/></g><g transform="translate(257.81 309.28)"><path d="m0 0 11.84 0.231 0.38-50.736z" fill="#77141f" fill-rule="evenodd"/></g><g transform="translate(269.45 332.14)"><path d="m0 0 29.828-22.594-29.578-0.025z" fill="#f46e47" fill-rule="evenodd"/></g><g transform="translate(269.49 309.53)"><path d="m0 0 29.785 0.02-14.879-25.56z" fill="#f03932" fill-rule="evenodd"/></g><g transform="translate(270.04 258.79)"><path d="m0 0 0.054 99.48-0.823 1.409-1.252-0.994z" fill="#f9b289" fill-rule="evenodd"/></g></g><g transform="translate(244.84 192.8)"><path d="m0 0-7.95-13.891-2.003 4e-3 -7.652 12.647-0.028-19.913-4.619 6e-3 0.041 29.674 4.27-6e-3 9.652-15.744 8.997 15.719 4.619-6e-3 -0.039-29.675-5.316 7e-3z" fill="#4f4c4d"/></g><g transform="translate(259.06 201.28)"><path d="m0 0 16.297-0.023-1.05-4.05-9.935 0.012-0.013-8.454 9.631-0.01-6e-3 -4.054-9.63 0.013-0.012-9.02 10.981-0.016-6e-3 -4.096-16.297 0.023z" fill="#4f4c4d"/></g><g transform="translate(303.38 173.29)"><path d="m0 0c-2.441-1.434-5.973-2.346-9.327-2.34-10.329 0.013-14.633 7.56-14.62 15.751 0.01 8.235 5.728 15.113 15.663 15.099 2.659-4e-3 6.013-0.837 7.622-1.753l-1.311-4.356c-1.263 1.179-3.876 2.053-6.316 2.057-6.275 8e-3 -9.986-4.954-9.995-11.057-8e-3 -6.665 3.298-11.637 8.961-11.646 1.656-2e-3 3.007 0.301 4.011 0.91l0.014 10.46 5.316-9e-3z" fill="#4f4c4d"/></g><g transform="translate(315.55 181.68)"><path d="m0 0 8.63-0.013-4.296 13.69zm9.801-3.805-10.983 0.015-2.011-6.359-4.969 8e-3 10.323 29.662 5.317-8e-3 10.289-29.689-5.972 7e-3z" fill="#4f4c4d"/></g><g transform="translate(338.07 201.17)"><path d="m0 0 2.311-4e-3 16.263-24.294 0.031 24.272 2.66-3e-3 -0.039-29.674-2.357 1e-3 -16.218 24.337-0.033-24.314-2.659 2e-3z" fill="#4f4c4d"/></g><g transform="translate(368.22 201.13)"><path d="m0 0 14.292-0.021-0.701-2.308-10.936 0.016-0.014-10.763 10.281-0.014-1e-3 -2.354-10.283 0.014-0.017-11.895 11.634-0.018-3e-3 -2.353-14.293 0.021z" fill="#4f4c4d"/></g><g transform="translate(393.49 198.48)"><path d="m0 0-8.15 0.012 2e-3 2.309 19.61-0.026-0.658-2.31-8.147 0.012-0.039-27.061-2.657 1e-3z" fill="#4f4c4d"/></g><g transform="translate(227.72 147.46)"><path d="m0 0c-3.835 4e-3 -5.378 3.035-5.373 6.196 4e-3 3.162 2.311 5.714 5.658 5.71 0.791 0 1.647-0.088 2.438-0.441l-0.254-0.907c-0.656 0.337-1.463 0.455-2.185 0.456-2.691 4e-3 -4.511-2.163-4.514-4.819-3e-3 -2.929 1.558-5.282 4.23-5.288 1.01-2e-3 1.8 0.332 2.457 0.788l0.251-0.909c-0.623-0.454-1.682-0.786-2.708-0.786" fill="#4f4c4d"/></g><g transform="translate(239.1 148.59)"><path d="m0 0c1.229-2e-3 2.306 0.553 2.308 2.133 1e-3 1.464-0.872 2.339-2.301 2.343l-1.665 2e-3 0.253 0.906 1.412-3e-3c1.262-2e-3 1.936 1.124 1.938 2.254 2e-3 1.343-0.906 2.016-2.454 2.019l-2.169 5e-3 -0.013-9.655zm-3.702 10.549 3.061-3e-3c2.489-4e-3 3.733-1.015 3.73-2.914-3e-3 -1.363-0.743-2.236-1.686-2.589 1.026-0.355 2.068-1.229 2.065-2.91-3e-3 -1.934-1.416-3.044-3.351-3.04l-3.834 6e-3z" fill="#4f4c4d"/></g><g transform="translate(247.05 147.78)"><path d="m0 0 2.309 3.799c0.388 0.622 0.759 0.823 0.977 0.905-0.455 0.121-0.958 0.289-1.346 0.61-0.722 0.539-1.158 1.43-1.156 2.505 1e-3 1.077 0.44 2.035 1.264 2.691 0.354 0.269 0.758 0.469 1.213 0.603 0.555 0.183 1.127 0.216 1.748 0.216l2.59-4e-3 -0.015-11.452h-1.042l0.014 10.546-1.783 3e-3c-0.471 0-0.908-0.033-1.312-0.183-0.286-0.117-0.555-0.286-0.807-0.505-0.657-0.603-0.726-1.342-0.726-1.931-1e-3 -0.389 0.049-0.757 0.183-1.094 0.101-0.252 0.252-0.472 0.469-0.691 0.337-0.336 0.925-0.741 1.799-0.741l1.463-4e-3 -0.304-0.908-0.504 3e-3c-1.211 0-1.598-0.587-1.92-1.126l-2.038-3.427z" fill="#4f4c4d"/></g><g transform="translate(261.53 153.94)"><path d="m0 0h1.531c0.655-3e-3 1.445 0.045 2.052 0.669 0.422 0.452 0.625 1.058 0.625 1.598 0 0.618-0.216 1.126-0.537 1.48-0.553 0.62-1.343 0.725-1.999 0.725-0.74 0-1.666-0.133-2.81-0.786l-0.503 0.907c1.01 0.555 1.986 0.789 3.263 0.787 0.807-1e-3 1.8-0.106 2.588-0.694 0.791-0.589 1.143-1.514 1.142-2.373-1e-3 -0.655-0.238-1.262-0.591-1.731-0.355-0.47-0.759-0.706-1.078-0.822 0.202-0.069 0.403-0.169 0.605-0.286 0.185-0.119 0.37-0.238 0.521-0.422 0.587-0.606 0.789-1.263 0.788-2.003-2e-3 -1.076-0.407-1.999-1.13-2.606-0.405-0.352-0.91-0.588-1.431-0.739-0.623-0.181-1.262-0.231-1.918-0.23-0.79 0-1.799 0.085-3.058 0.677l0.505 1.024c0.419-0.254 1.076-0.556 1.999-0.709 0.321-0.049 0.589-0.084 0.909-0.084 1.076 0 2.002 0.416 2.474 1.019 0.319 0.407 0.506 1.028 0.506 1.584 2e-3 0.604-0.201 1.092-0.587 1.463-0.621 0.573-1.378 0.64-1.764 0.641l-2.321 3e-3z" fill="#4f4c4d"/></g><g transform="translate(274.45 154.42)"><path d="m0 0 1.044-1e-3c0.891 0 1.832-0.087 2.773-0.76 0.422-0.32 0.774-0.707 0.992-1.18 0.217-0.469 0.3-1.007 0.3-1.547-1e-3 -1.075-0.306-1.782-0.995-2.387-0.876-0.787-1.835-0.921-2.844-0.921l-3.397 5e-3 0.015 11.453 1.043-2e-3 -0.014-10.547 2.254-2e-3c1.395 0 2.068 0.587 2.338 0.957 0.286 0.387 0.455 0.941 0.457 1.528 1e-3 1.011-0.403 1.602-0.822 1.921-0.656 0.521-1.531 0.573-1.967 0.573l-1.481 3e-3z" fill="#4f4c4d"/></g><g transform="translate(296.47 147.36)"><path d="m0 0c-3.836 5e-3 -5.377 3.037-5.374 6.196 6e-3 3.162 2.313 5.715 5.658 5.71 0.792-2e-3 1.65-0.085 2.44-0.441l-0.254-0.905c-0.656 0.336-1.462 0.455-2.186 0.457-2.69 3e-3 -4.51-2.163-4.513-4.822-5e-3 -2.926 1.557-5.283 4.231-5.286 1.008-2e-3 1.8 0.332 2.455 0.787l0.251-0.91c-0.622-0.45-1.684-0.788-2.708-0.786" fill="#4f4c4d"/></g><g transform="translate(310.75 148.52)"><path d="m0 0c0.536-0.185 0.822-0.238 1.024-0.238 0.69 0 1.112 0.27 1.448 0.722 0.269 0.354 0.489 0.807 0.606 1.159l-4.345 8.65 1.145 0.184 3.756-7.623 3.005 7.699 1.077-0.084-3.391-8.741c-0.338-0.874-0.795-1.833-1.451-2.352-0.404-0.321-0.976-0.556-1.667-0.556-0.604 0-1.009 0.12-1.209 0.24z" fill="#4f4c4d"/></g><g transform="translate(327.63 147.32)"><path d="m0 0c-3.837 6e-3 -5.378 3.032-5.374 6.193 3e-3 3.164 2.311 5.717 5.658 5.713 0.792-1e-3 1.648-0.088 2.44-0.441l-0.255-0.908c-0.656 0.337-1.462 0.457-2.186 0.457-2.69 4e-3 -4.511-2.163-4.514-4.821-3e-3 -2.925 1.558-5.284 4.232-5.285 1.008 0 1.799 0.332 2.457 0.785l0.25-0.908c-0.623-0.452-1.682-0.788-2.708-0.785" fill="#4f4c4d"/></g><g transform="translate(342.24 158.08)"><path d="m0 0-5.886 8e-3 -0.013-10.543-1.043 2e-3 0.015 11.45 7.971-0.01-0.016-11.453-1.043 2e-3z" fill="#4f4c4d"/></g><g transform="translate(349.4 158.98)"><path d="m0 0 5.515-7e-3 -0.268-0.891-4.22 6e-3 -7e-3 -4.154 3.97-5e-3 -3e-3 -0.909-3.968 6e-3 -8e-3 -4.592 4.491-5e-3 -2e-3 -0.909-5.516 9e-3z" fill="#4f4c4d"/></g><g transform="translate(362.64 153.2)"><path d="m0 0-3.675 5.771 1.279-1e-3 3.106-4.88 2.914 4.871 1.28-1e-3 -3.692-5.663 3.675-5.79-1.279 2e-3 -3.105 4.88-2.916-4.872-1.276 2e-3z" fill="#4f4c4d"/></g><g transform="translate(376.2 148.16)"><path d="m0 0c2.472-2e-3 3.603 2.449 3.607 5.277 2e-3 2.807-1.254 4.827-3.595 4.83-2.286 3e-3 -3.598-2.131-3.605-4.819-2e-3 -2.83 1.154-5.284 3.593-5.288m0-0.907c-3.078 4e-3 -4.741 2.713-4.734 6.195 2e-3 3.313 2.042 5.715 4.75 5.711 2.825-4e-3 4.755-2.412 4.751-5.724-5e-3 -3.481-1.808-6.186-4.767-6.182" fill="#4f4c4d"/></g><g transform="translate(386.17 158.93)"><path d="m0 0h0.894l4.096-6.193 3.975 6.181h0.789l-0.012-11.451-1.047 2e-3 0.016 9.567-3.607-5.646-0.504 2e-3 -3.59 5.471-0.013-9.385-1.011 4e-3z" fill="#4f4c4d"/></g></g></svg>
